PathFileType	4	(X/Y/Z)	/Users/itak/Documents/Research/Walk-IL/dataset/trc/00376_00012.trc
DataRate	CameraRate	NumFrames	NumMarkers	Units	OrigDataRate	OrigDataStartFrame	OrigNumFrames
100.000000	100.000000	4	56	mm	100.000000	298	398
Frame#	Time	RPSI			LPSI			L3			STRN			T10			C7			CLAV			RBAK			LBAK			LSHO			LUPA			LAEL			LAOL			LWTS			LWPS			LFRA			LIFD			LHPS			LHTS			RSHO			RUPA			RAEL			RAOL			RWPS			RFRA			RIFD			RHTS			RHPS			RBHD			LFHD			RFHD			LBHD			LHIP			RHIP			RASI			LASI			LKNE			LTHI			LANK			LTIP			LTOE			LMT1			LMT5			LHEE			RKNE			RTHI			RANK			RTIP			RTOE			RMT1			RMT5			RHEE			RWTS			*53			*54			*55			
		X1	Y1	Z1	X2	Y2	Z2	X3	Y3	Z3	X4	Y4	Z4	X5	Y5	Z5	X6	Y6	Z6	X7	Y7	Z7	X8	Y8	Z8	X9	Y9	Z9	X10	Y10	Z10	X11	Y11	Z11	X12	Y12	Z12	X13	Y13	Z13	X14	Y14	Z14	X15	Y15	Z15	X16	Y16	Z16	X17	Y17	Z17	X18	Y18	Z18	X19	Y19	Z19	X20	Y20	Z20	X21	Y21	Z21	X22	Y22	Z22	X23	Y23	Z23	X24	Y24	Z24	X25	Y25	Z25	X26	Y26	Z26	X27	Y27	Z27	X28	Y28	Z28	X29	Y29	Z29	X30	Y30	Z30	X31	Y31	Z31	X32	Y32	Z32	X33	Y33	Z33	X34	Y34	Z34	X35	Y35	Z35	X36	Y36	Z36	X37	Y37	Z37	X38	Y38	Z38	X39	Y39	Z39	X40	Y40	Z40	X41	Y41	Z41	X42	Y42	Z42	X43	Y43	Z43	X44	Y44	Z44	X45	Y45	Z45	X46	Y46	Z46	X47	Y47	Z47	X48	Y48	Z48	X49	Y49	Z49	X50	Y50	Z50	X51	Y51	Z51	X52	Y52	Z52	X53	Y53	Z53	X54	Y54	Z54	X55	Y55	Z55	X56	Y56	Z56	

299	2.98	1038.39453125	953.6384887695312	164.3684997558594	1031.090576171875	936.5355224609375	33.52156448364258	1027.943115234375	1034.334838867188	104.9052276611328	1261.103637695312	1208.378173828125	89.74400329589844	1015.237915039062	1138.141967773438	106.1864166259766	1040.489135742188	1391.211181640625	99.26631927490234	1197.047119140625	1320.906127929688	94.41727447509766	1007.127807617188	1242.318359375	169.8586120605469	1016.847595214844	1353.734130859375	0.5118475556373596	1098.429077148438	1372.527099609375	-58.73902130126953	1056.636108398438	1255.510131835938	-119.0910797119141	1042.2255859375	1060.40234375	-136.6178588867188	1004.494384765625	1043.975219726562	-60.12879180908203	1122.511108398438	838.3777465820312	-122.7663269042969	1050.299194335938	829.9558715820312	-162.3494567871094	1043.052001953125	955.1141357421875	-148.1254425048828	1097.661376953125	657.6310424804688	-116.8920440673828	1056.335327148438	742.8788452148438	-155.8152465820312	1119.422119140625	738.4642944335938	-143.5033264160156	1107.035766601562	1373.7109375	253.9309387207031	1099.280517578125	1308.241333007812	313.7715454101562	1127.442260742188	1050.134033203125	364.1361083984375	1115.362915039062	1030.77490234375	270.452392578125	1294.791259765625	881.8477783203125	408.9596252441406	1172.012939453125	997.5289916992188	383.1894836425781	1424.467041015625	770.568603515625	367.7136840820312	1399.871459960938	837.6824340820312	383.7130737304688	1345.579223632812	809.8235473632812	414.6245727539062	1084.671508789062	1578.030151367188	183.7074584960938	1222.29638671875	1587.9609375	39.38506698608398	1216.631958007812	1590.706909179688	162.2691497802734	1074.398559570312	1572.118041992188	22.88929557800293	1111.90966796875	939.90771484375	-83.55670166015625	1143.825805664062	943.4390869140625	279.7710876464844	1258.404052734375	968.6961059570312	215.6541748046875	1227.651733398438	958.3829956054688	-45.24055480957031	1309.958129882812	483.3571166992188	-82.73241424560547	1258.011108398438	610.6234741210938	-85.09017181396484	1150.04541015625	53.95856094360352	-99.61423492431641	1228.93994140625	260.1025695800781	-105.4977645874023	1357.94140625	38.36312866210938	-36.69057846069336	1280.498046875	40.0543212890625	-6.339047431945801	1274.297973632812	35.5798454284668	-110.9167251586914	1110.61083984375	56.20383453369141	-44.23154067993164	1210.420166015625	464.4280700683594	230.3004913330078	1230.595458984375	730.2201538085938	266.440185546875	1150.654174804688	43.57887649536133	179.4231567382812	1217.87158203125	336.9730529785156	207.2616729736328	1324.699584960938	25.53179359436035	99.58299255371094	1245.101440429688	34.62462615966797	78.78171539306641	1233.71923828125	34.39207077026367	179.5708465576172	1073.521606445312	35.72084045410156	132.2185668945312	1331.77734375	914.5189208984375	353.6719360351562	nan	nan	nan	nan	nan	nan	nan	nan	nan	
300	2.99	1041.230590820312	954.0958251953125	162.9888763427734	1034.63330078125	937.0333862304688	32.10193634033203	1030.998901367188	1034.488647460938	103.5861206054688	1264.190307617188	1208.357421875	89.97444915771484	1018.093200683594	1138.309692382812	104.9867706298828	1043.61279296875	1391.287963867188	98.25693511962891	1200.1962890625	1320.893920898438	94.19661712646484	1009.843994140625	1242.463134765625	168.7653045654297	1020.33447265625	1353.705810546875	-0.668215811252594	1102.31396484375	1372.369506835938	-59.48837661743164	1061.115234375	1255.323120117188	-120.1521911621094	1047.25390625	1060.1572265625	-137.9758758544922	1008.900085449219	1043.667846679688	-61.783447265625	1127.661376953125	838.1616821289062	-123.2352447509766	1055.873046875	829.706298828125	-163.6248626708984	1048.359252929688	954.8799438476562	-149.4858551025391	1103.03466796875	657.4661865234375	-117.5806274414062	1061.95556640625	742.5951538085938	-156.9585418701172	1125.034057617188	738.4290771484375	-144.3112487792969	1109.5751953125	1373.864501953125	253.2762756347656	1101.668334960938	1308.32861328125	313.0628356933594	1130.24365234375	1050.159545898438	363.3253479003906	1117.974853515625	1030.872436523438	269.49609375	1296.6884765625	881.0007934570312	408.2411193847656	1174.621459960938	997.3828125	382.3768310546875	1425.433471679688	768.670654296875	366.9126281738281	1401.420654296875	835.9942016601562	382.9576416015625	1346.910766601562	808.5555419921875	413.8738403320312	1087.913818359375	1578.177978515625	182.7939758300781	1225.919311523438	1587.76220703125	38.85190582275391	1219.913452148438	1590.564697265625	161.7279968261719	1078.034423828125	1572.20068359375	21.97358512878418	1116.038818359375	940.0831298828125	-84.57576751708984	1146.046752929688	943.8570556640625	278.8100280761719	1261.104370117188	968.7066040039062	215.4201202392578	1231.649047851562	958.193359375	-45.57831573486328	1309.436889648438	481.601806640625	-82.39928436279297	1258.770141601562	609.6640625	-85.21746826171875	1152.160766601562	51.48080444335938	-102.4344024658203	1229.837646484375	258.0630798339844	-106.7296295166016	1359.610717773438	36.40666198730469	-36.04994201660156	1281.276489257812	38.21173858642578	-6.989124298095703	1276.800903320312	33.85694885253906	-111.5080184936523	1111.75146484375	53.42668151855469	-47.76919937133789	1210.068115234375	464.5310363769531	230.8763885498047	1231.541870117188	730.2687377929688	266.4458923339844	1150.556518554688	43.43267822265625	179.5545043945312	1217.412841796875	337.1007690429688	207.9771881103516	1324.510986328125	25.68460273742676	99.61563873291016	1245.047119140625	34.79426574707031	79.04882049560547	1233.610595703125	34.25418853759766	179.8911437988281	1073.4541015625	35.67170715332031	132.2867736816406	1333.896850585938	913.3788452148438	352.9498596191406	nan	nan	nan	nan	nan	nan	nan	nan	nan	
301	3	1044.08154296875	954.6375732421875	161.5892028808594	1038.20166015625	937.6256103515625	30.67400550842285	1034.010375976562	1034.6728515625	102.2010650634766	1267.191040039062	1208.35107421875	90.16947937011719	1020.867309570312	1138.502685546875	103.64697265625	1046.6396484375	1391.359497070312	97.19369506835938	1203.271118164062	1320.9111328125	93.92573547363281	1012.475341796875	1242.609130859375	167.5960540771484	1023.744873046875	1353.677001953125	-1.897862434387207	1106.114990234375	1372.22265625	-60.27814102172852	1065.573608398438	1255.152587890625	-121.281379699707	1052.427490234375	1059.911987304688	-139.4387054443359	1013.391662597656	1043.307373046875	-63.60159301757812	1133.055297851562	837.9443969726562	-123.7631683349609	1061.743774414062	829.4649047851562	-165.0363616943359	1053.88525390625	954.65283203125	-150.9710693359375	1108.783081054688	657.3402099609375	-118.4816055297852	1067.93359375	742.3291015625	-158.2791595458984	1130.959838867188	738.4269409179688	-145.1957244873047	1112.00146484375	1373.994873046875	252.5573577880859	1103.941284179688	1308.386962890625	312.2763671875	1132.833984375	1050.159057617188	362.4276733398438	1120.31982421875	1030.944580078125	268.4252319335938	1298.143188476562	879.9263305664062	407.4708557128906	1176.956420898438	997.1565551757812	381.4847412109375	1425.788330078125	766.3536987304688	366.1685791015625	1402.48583984375	833.9356689453125	382.2375183105469	1347.687133789062	807.0046997070312	413.118896484375	1091.054565429688	1578.3388671875	181.83349609375	1229.46044921875	1587.580078125	38.27665710449219	1223.099487304688	1590.445678710938	161.1431274414062	1081.588500976562	1572.295532226562	21.00790977478027	1120.163330078125	940.33251953125	-85.62741088867188	1147.575805664062	944.3936767578125	277.6249389648438	1263.78515625	968.72021484375	215.1352691650391	1235.650756835938	957.9891967773438	-45.92601013183594	1308.506469726562	479.8390197753906	-82.22376251220703	1259.242309570312	608.72216796875	-85.47150421142578	1153.38525390625	49.14394378662109	-105.0776443481445	1229.992553710938	256.1390686035156	-107.9546203613281	1360.345825195312	34.96880722045898	-35.51419067382812	1281.265014648438	36.68272018432617	-7.632075309753418	1278.371459960938	32.38106155395508	-112.0976181030273	1112.039916992188	50.81468200683594	-51.09661865234375	1209.687866210938	464.6477355957031	231.4122314453125	1232.509033203125	730.3765869140625	266.430908203125	1150.455322265625	43.29617691040039	179.7001190185547	1216.91552734375	337.2362365722656	208.6529541015625	1324.319213867188	25.83283424377441	99.65133666992188	1244.978515625	34.96029663085938	79.30483245849609	1233.531005859375	34.10185623168945	180.1499938964844	1073.3974609375	35.62688446044922	132.3677062988281	1335.6513671875	911.9517822265625	352.1989135742188	nan	nan	nan	nan	nan	nan	nan	nan	nan	
302	3.01	1046.93701171875	955.2660522460938	160.1656036376953	1041.7568359375	938.3150024414062	29.22762107849121	1037.025634765625	1034.873413085938	100.7690582275391	1270.108276367188	1208.369384765625	90.30667114257812	1023.571899414062	1138.72119140625	102.1986083984375	1049.570678710938	1391.430541992188	96.0885009765625	1206.269165039062	1320.96533203125	93.59796905517578	1015.024169921875	1242.757080078125	166.3636016845703	1027.079345703125	1353.65283203125	-3.16567587852478	1109.820922851562	1372.10107421875	-61.10373687744141	1069.9892578125	1255.007934570312	-122.4670333862305	1057.739379882812	1059.682495117188	-140.9974060058594	1017.964233398438	1042.909912109375	-65.58013916015625	1138.704223632812	837.7774658203125	-124.366325378418	1067.927001953125	829.2529907226562	-166.5859527587891	1059.631469726562	954.449951171875	-152.5771636962891	1114.900390625	657.2669067382812	-119.5816497802734	1074.282836914062	742.1095581054688	-159.7810516357422	1137.197509765625	738.4783935546875	-146.1231994628906	1114.326293945312	1374.107177734375	251.7787628173828	1106.115356445312	1308.423461914062	311.4208984375	1135.200805664062	1050.13720703125	361.4440002441406	1122.43310546875	1031.00146484375	267.2640991210938	1299.164794921875	878.6431274414062	406.6482849121094	1179.0244140625	996.8580932617188	380.5198669433594	1425.564331054688	763.6599731445312	365.4774169921875	1403.0712890625	831.53271484375	381.5374450683594	1347.920166015625	805.195068359375	412.3542175292969	1094.097534179688	1578.527587890625	180.8269195556641	1232.921142578125	1587.415161132812	37.65762329101562	1226.197143554688	1590.355346679688	160.5148468017578	1085.062133789062	1572.40576171875	19.99374961853027	1124.281372070312	940.6708984375	-86.71489715576172	1148.4169921875	945.0296630859375	276.2166137695312	1266.439819335938	968.737060546875	214.8031616210938	1239.658203125	957.8079833984375	-46.305908203125	1307.1591796875	478.1009521484375	-82.24552917480469	1259.448852539062	607.835693359375	-85.87203979492188	1153.832153320312	46.92841720581055	-107.4718780517578	1229.4560546875	254.3309478759766	-109.1478271484375	1360.241577148438	34.0738639831543	-35.06352996826172	1280.603637695312	35.48762893676758	-8.246005058288574	1279.118041992188	31.15829086303711	-112.6691436767578	1111.604125976562	48.34922027587891	-54.12963104248047	1209.273315429688	464.7701110839844	231.8832702636719	1233.4892578125	730.53564453125	266.4090576171875	1150.3505859375	43.1708869934082	179.8541717529297	1216.390258789062	337.3831787109375	209.2714233398438	1324.129272460938	25.97226524353027	99.69174957275391	1244.903442382812	35.11896133422852	79.54495239257812	1233.4833984375	33.9413948059082	180.3454132080078	1073.349487304688	35.58612823486328	132.4493865966797	1337.041015625	910.2546997070312	351.41259765625	nan	nan	nan	nan	nan	nan	nan	nan	nan	
